HIERARCHY
ROOT hip
{
  OFFSET 0 0 0
  CHANNELS 6 Xposition Yposition Zposition Zrotation Yrotation Xrotation
  JOINT abdomen
  {
    OFFSET 0 20.6881 -0.73152
    CHANNELS 3 Zrotation Xrotation Yrotation
    JOINT chest
    {
      OFFSET 0 11.7043 -0.48768
      CHANNELS 3 Zrotation Xrotation Yrotation
      JOINT neck
      {
        OFFSET 0 22.1894 -2.19456
        CHANNELS 3 Zrotation Xrotation Yrotation
        JOINT head
        {
          OFFSET -0.24384 7.07133 1.2192
          CHANNELS 3 Zrotation Xrotation Yrotation
          JOINT leftEye
          {
            OFFSET 4.14528 8.04674 8.04672
            CHANNELS 3 Zrotation Xrotation Yrotation
            End Site
            {
              OFFSET 1 0 0
            }
          }
          JOINT rightEye
          {
            OFFSET -3.6576 8.04674 8.04672
            CHANNELS 3 Zrotation Xrotation Yrotation
            End Site
            {
              OFFSET 1 0 0
            }
          }
        }
      }
      JOINT rCollar
      {
        OFFSET -2.68224 19.2634 -4.8768
        CHANNELS 3 Zrotation Xrotation Yrotation
        JOINT rShldr
        {
          OFFSET -8.77824 -1.95073 1.46304
          CHANNELS 3 Zrotation Xrotation Yrotation
          JOINT rForeArm
          {
            OFFSET -28.1742 -1.7115 0.48768
            CHANNELS 3 Zrotation Xrotation Yrotation
            JOINT rHand
            {
              OFFSET -22.5879 0.773209 7.07136
              CHANNELS 3 Zrotation Xrotation Yrotation
              JOINT rThumb1
              {
                OFFSET -1.2192 -0.487915 3.41376
                CHANNELS 3 Zrotation Xrotation Yrotation
                JOINT rThumb2
                {
                  OFFSET -3.37035 -0.52449 3.41376
                  CHANNELS 3 Zrotation Xrotation Yrotation
                  End Site
                  {
                    OFFSET -1.78271 -1.18214 1.43049
                  }
                }
              }
              JOINT rIndex1
              {
                OFFSET -7.75947 0.938293 5.60832
                CHANNELS 3 Zrotation Xrotation Yrotation
                JOINT rIndex2
                {
                  OFFSET -2.54057 -0.884171 1.56538
                  CHANNELS 3 Zrotation Xrotation Yrotation
                  End Site
                  {
                    OFFSET -1.62519 -0.234802 1.16502
                  }
                }
              }
              JOINT rMid1
              {
                OFFSET -8.24714 1.18213 3.41376
                CHANNELS 3 Zrotation Xrotation Yrotation
                JOINT rMid2
                {
                  OFFSET -3.10165 -0.590103 1.0647
                  CHANNELS 3 Zrotation Xrotation Yrotation
                  End Site
                  {
                    OFFSET -2.48547 -0.328903 0.83742
                  }
                }
              }
              JOINT rRing1
              {
                OFFSET -8.82822 0.546677 1.51678
                CHANNELS 3 Zrotation Xrotation Yrotation
                JOINT rRing2
                {
                  OFFSET -2.60934 -0.819778 -0.0198488
                  CHANNELS 3 Zrotation Xrotation Yrotation
                  End Site
                  {
                    OFFSET -2.33842 -0.294052 0.168128
                  }
                }
              }
              JOINT rPinky1
              {
                OFFSET -8.27202 -0.0477905 -0.4584
                CHANNELS 3 Zrotation Xrotation Yrotation
                JOINT rPinky2
                {
                  OFFSET -1.82734 -0.647385 -0.700984
                  CHANNELS 3 Zrotation Xrotation Yrotation
                  End Site
                  {
                    OFFSET -1.69225 -0.51767 -0.607171
                  }
                }
              }
            }
          }
        }
      }
      JOINT lCollar
      {
        OFFSET 2.68224 19.2634 -4.8768
        CHANNELS 3 Zrotation Xrotation Yrotation
        JOINT lShldr
        {
          OFFSET 8.77824 -1.95073 1.46304
          CHANNELS 3 Zrotation Xrotation Yrotation
          JOINT lForeArm
          {
            OFFSET 28.1742 -1.7115 0.48768
            CHANNELS 3 Zrotation Xrotation Yrotation
            JOINT lHand
            {
              OFFSET 22.5879 0.773209 7.07136
              CHANNELS 3 Zrotation Xrotation Yrotation
              JOINT lThumb1
              {
                OFFSET 1.2192 -0.487915 3.41376
                CHANNELS 3 Zrotation Xrotation Yrotation
                JOINT lThumb2
                {
                  OFFSET 3.37035 -0.52449 3.41376
                  CHANNELS 3 Zrotation Xrotation Yrotation
                  End Site
                  {
                    OFFSET 1.78271 -1.18214 1.43049
                  }
                }
              }
              JOINT lIndex1
              {
                OFFSET 7.75947 0.938293 5.60832
                CHANNELS 3 Zrotation Xrotation Yrotation
                JOINT lIndex2
                {
                  OFFSET 2.54057 -0.884171 1.56538
                  CHANNELS 3 Zrotation Xrotation Yrotation
                  End Site
                  {
                    OFFSET 1.62519 -0.234802 1.16502
                  }
                }
              }
              JOINT lMid1
              {
                OFFSET 8.24714 1.18213 3.41376
                CHANNELS 3 Zrotation Xrotation Yrotation
                JOINT lMid2
                {
                  OFFSET 3.10165 -0.590103 1.0647
                  CHANNELS 3 Zrotation Xrotation Yrotation
                  End Site
                  {
                    OFFSET 2.48547 -0.328903 0.83742
                  }
                }
              }
              JOINT lRing1
              {
                OFFSET 8.82822 0.546677 1.51678
                CHANNELS 3 Zrotation Xrotation Yrotation
                JOINT lRing2
                {
                  OFFSET 2.60934 -0.819778 -0.0198488
                  CHANNELS 3 Zrotation Xrotation Yrotation
                  End Site
                  {
                    OFFSET 2.33842 -0.294052 0.168128
                  }
                }
              }
              JOINT lPinky1
              {
                OFFSET 8.27202 -0.0477905 -0.4584
                CHANNELS 3 Zrotation Xrotation Yrotation
                JOINT lPinky2
                {
                  OFFSET 1.82734 -0.647385 -0.700984
                  CHANNELS 3 Zrotation Xrotation Yrotation
                  End Site
                  {
                    OFFSET 1.69225 -0.51767 -0.607171
                  }
                }
              }
            }
          }
        }
      }
    }
  }
  JOINT rButtock
  {
    OFFSET -8.77824 4.35084 1.2192
    CHANNELS 3 Zrotation Xrotation Yrotation
    JOINT rThigh
    {
      OFFSET 0 -1.70687 -2.19456
      CHANNELS 3 Zrotation Xrotation Yrotation
      JOINT rShin
      {
        OFFSET 0 -36.8199 0.73152
        CHANNELS 3 Zrotation Xrotation Yrotation
        JOINT rFoot
        {
          OFFSET 0.73152 -45.1104 -5.12064
          CHANNELS 3 Zrotation Xrotation Yrotation
          End Site
          {
            OFFSET -1.1221 -3.69964 12.103
          }
        }
      }
    }
  }
  JOINT lButtock
  {
    OFFSET 8.77824 4.35084 1.2192
    CHANNELS 3 Zrotation Xrotation Yrotation
    JOINT lThigh
    {
      OFFSET 0 -1.70687 -2.19456
      CHANNELS 3 Zrotation Xrotation Yrotation
      JOINT lShin
      {
        OFFSET 0 -36.8199 0.73152
        CHANNELS 3 Zrotation Xrotation Yrotation
        JOINT lFoot
        {
          OFFSET -0.73152 -45.1104 -5.12064
          CHANNELS 3 Zrotation Xrotation Yrotation
          End Site
          {
            OFFSET 1.1221 -3.69964 12.103
          }
        }
      }
    }
  }
}
MOTION
Frames:	6
Frame Time:	0.03333
-3.01297 53.53099999999999 69.4656 9.6217 32.3236 5.9413 -17.568699999999996 9.92895 5.590020000000001 5.26231 -8.93742 1.73347 -9.601649999999998 17.1917 -12.7162 9.32477 -24.121999999999996 -23.0683 -0.0 0.0 0.0 -0.0 0.0 0.0 2.15557e-13 -1.92397e-13 -4.83049e-13 32.9068 15.146100000000002 33.0645 -14.295 -7.194999999999999 26.1495 -0.526189 20.1651 2.95846 -1.62263e-10 1.7715399999999997e-09 -6.257009999999999e-10 -2.95024e-10 2.98896e-09 -1.0766999999999998e-09 -1.62255e-10 1.7715700000000003e-09 -6.2571e-10 7.730909999999999 5.47488 0.417314 -1.6226599999999996e-10 1.7715399999999997e-09 -6.25707e-10 2.90554 0.965183 0.102902 -1.6225199999999997e-10 1.77155e-09 -6.25706e-10 10.278600000000003 0.731801 0.0259123 -1.62265e-10 1.7715399999999997e-09 -6.25704e-10 2.22167 -0.733487 -0.20892000000000002 2.1557599999999996e-13 -1.92404e-13 -4.834240000000001e-13 -109.147 49.430499999999995 47.2757 28.195299999999996 -39.2192 -82.53339999999999 2.19615 -38.1675 6.34218 -3.46014e-10 4.0590600000000007e-10 -4.86657e-10 -5.75737e-10 7.77051e-10 -8.61494e-10 -3.46025e-10 4.0590300000000004e-10 -4.866370000000001e-10 -7.730909999999999 5.47488 -0.417314 -3.46014e-10 4.059e-10 -4.86653e-10 -2.90554 0.965183 -0.102902 -3.46021e-10 4.05904e-10 -4.86654e-10 -10.278600000000003 0.731801 -0.0259123 -3.46011e-10 4.05907e-10 -4.8666e-10 -2.22167 -0.733487 0.20892000000000002 -2.03217e-16 0.0 -3.88251e-19 -60.544000000000004 -54.1244 -50.01339999999999 -1.62399 66.6457 2.08979 0.881843 3.585980000000001 10.8958 2.03217e-16 0.0 3.88251e-19 14.0105 11.0295 -1.35311 -0.0791108 35.958 -2.7547600000000005 7.8349 -15.3687 34.565000000000005
-2.98164 53.514700000000005 69.8142 9.959 32.20940000000001 6.296000000000001 -17.9508 9.96169 5.560840000000001 5.35073 -8.963940000000001 1.71201 -9.455319999999999 17.2331 -12.697300000000002 9.37691 -24.105199999999996 -23.022399999999998 -0.0 0.0 0.0 -0.0 0.0 0.0 -6.97247e-14 8.705010000000001e-14 -8.443809999999999e-13 32.5292 14.933399999999999 33.2718 -14.370499999999998 -7.257300000000001 26.3025 -0.5262069999999999 20.165699999999998 2.95855 3.35121e-09 4.37534e-09 3.0109199999999998e-09 5.8317e-09 7.91247e-09 5.146030000000001e-09 3.3512200000000003e-09 4.37537e-09 3.01091e-09 7.730909999999999 5.47488 0.417314 3.35121e-09 4.37534e-09 3.0109199999999998e-09 2.90554 0.965183 0.102902 3.35123e-09 4.375359999999999e-09 3.01091e-09 10.278600000000003 0.731801 0.0259123 3.3512e-09 4.37534e-09 3.0109199999999998e-09 2.22167 -0.733487 -0.20892000000000002 -6.974250000000002e-14 8.704850000000001e-14 -8.446659999999998e-13 -109.36400000000002 49.2957 47.480500000000006 28.1801 -39.328199999999995 -82.72570000000002 2.17768 -38.0365 6.31226 2.72098e-09 8.98849e-10 1.6641700000000003e-09 4.65087e-09 1.33011e-09 2.94751e-09 2.72098e-09 8.988470000000001e-10 1.66419e-09 -7.730909999999999 5.47488 -0.417314 2.7209900000000005e-09 8.98855e-10 1.6641799999999997e-09 -2.90554 0.965183 -0.102902 2.72098e-09 8.98852e-10 1.6641700000000003e-09 -10.278600000000003 0.731801 -0.0259123 2.7209900000000005e-09 8.98853e-10 1.6641700000000003e-09 -2.22167 -0.733487 0.20892000000000002 -2.03217e-16 0.0 -3.88251e-19 -61.252099999999984 -54.1943 -50.6021 -1.67024 67.08959999999999 2.14626 0.9435120000000001 3.11143 11.0204 2.03217e-16 0.0 3.88251e-19 13.8423 11.954100000000002 -1.2663300000000002 -0.09717419999999999 34.3832 -2.70808 7.37094 -14.9304 34.17680000000001
-2.96561 53.4742 70.1214 10.2231 32.1064 6.6736 -18.2477 9.927059999999999 5.474940000000001 5.40188 -8.94474 1.67741 -9.33111 17.3301 -12.699099999999998 9.428070000000002 -24.303300000000004 -23.0161 -0.0 0.0 0.0 -0.0 0.0 0.0 -2.41103e-13 3.5294500000000007e-13 -8.38261e-13 32.2026 14.8193 33.5637 -14.4536 -7.326319999999999 26.4711 -0.528644 20.2102 2.96565 3.41684e-09 3.84369e-09 3.20442e-09 5.94783e-09 7.00994e-09 5.47854e-09 3.416849999999999e-09 3.84371e-09 3.2044e-09 7.730909999999999 5.47488 0.417314 3.41684e-09 3.84369e-09 3.20441e-09 2.90554 0.965183 0.102902 3.4168599999999997e-09 3.84371e-09 3.20441e-09 10.278600000000003 0.731801 0.0259123 3.41683e-09 3.84369e-09 3.20442e-09 2.22167 -0.733487 -0.20892000000000002 -2.41144e-13 3.52946e-13 -8.3849e-13 -109.469 49.138600000000004 47.6414 28.170300000000005 -39.3951 -82.84490000000001 2.1763499999999993 -38.027 6.31009 2.83573e-09 8.55616e-10 1.77142e-09 4.84504e-09 1.23964e-09 3.1371e-09 2.83573e-09 8.55615e-10 1.77143e-09 -7.730909999999999 5.47488 -0.417314 2.83573e-09 8.55625e-10 1.77142e-09 -2.90554 0.965183 -0.102902 2.8357199999999994e-09 8.556169999999999e-10 1.77142e-09 -10.278600000000003 0.731801 -0.0259123 2.83573e-09 8.5562e-10 1.7714099999999996e-09 -2.22167 -0.733487 0.20892000000000002 -2.03217e-16 0.0 -3.88251e-19 -61.9376 -54.3227 -51.218399999999995 -1.71389 67.4852 2.19638 0.9987630000000001 2.71028 11.1464 2.03217e-16 0.0 3.88251e-19 13.7442 12.652000000000001 -1.00423 -0.111314 33.09499999999999 -2.67443 6.99534 -14.6021 33.8155
-2.9646 53.42640000000001 70.3968 10.4309 31.959800000000005 7.0249 -18.4598 9.82496 5.332400000000001 5.415839999999999 -8.87981 1.6297099999999998 -9.228899999999998 17.4826 -12.7217 9.4779 -24.7163 -23.0503 -0.0 0.0 0.0 -0.0 0.0 0.0 -2.98578e-13 6.05287e-13 -4.646869999999999e-13 31.9257 14.802500000000002 33.9402 -14.5441 -7.401990000000001 26.6552 -0.5335340000000001 20.2985 2.97977 3.46297e-11 1.76592e-10 -4.52161e-11 5.337029999999999e-11 2.8137800000000005e-10 -7.91772e-11 3.464e-11 1.76598e-10 -4.52294e-11 7.730909999999999 5.47488 0.417314 3.46296e-11 1.76592e-10 -4.52214e-11 2.90554 0.965183 0.102902 3.46398e-11 1.76596e-10 -4.52219e-11 10.278600000000003 0.731801 0.0259123 3.46272e-11 1.76592e-10 -4.5211800000000003e-11 2.22167 -0.733487 -0.20892000000000002 -2.98628e-13 6.052890000000001e-13 -4.64896e-13 -109.46399999999998 48.95920000000001 47.7587 28.1667 -39.4205 -82.8899 2.19213 -38.1389 6.335649999999999 -1.78405e-12 2.76209e-10 -1.6491700000000004e-10 6.770470000000001e-12 5.05633e-10 -2.92713e-10 -1.7925700000000003e-12 2.76207e-10 -1.64908e-10 -7.730909999999999 5.47488 -0.417314 -1.78352e-12 2.76209e-10 -1.6492e-10 -2.90554 0.965183 -0.102902 -1.79129e-12 2.762e-10 -1.64908e-10 -10.278600000000003 0.731801 -0.0259123 -1.78135e-12 2.76209e-10 -1.64921e-10 -2.22167 -0.733487 0.20892000000000002 -2.03217e-16 0.0 -3.88251e-19 -62.603899999999996 -54.508799999999994 -51.8659 -1.75427 67.8325 2.23951 1.04714 2.38244 11.2738 2.03217e-16 0.0 3.88251e-19 13.712899999999998 13.1229 -0.565824 -0.123091 32.0934 -2.65195 6.70544 -14.385299999999997 33.4793
-2.97137 53.3811 70.6458 10.6409 31.7325 7.335 -18.6979 9.75177 5.2784 5.41494 -8.84182 1.60621 -9.16222 17.6144 -12.7545 9.48005 -25.0224 -23.1163 -0.0 0.0 0.0 -0.0 0.0 0.0 -2.97776e-13 6.03975e-13 -3.03571e-13 31.8617 14.632399999999997 34.2931 -14.5666 -7.4208 26.7013 -0.5353819999999999 20.3316 2.98508 -4.67174e-10 3.34622e-10 -6.98958e-10 -8.237389999999999e-10 4.87872e-10 -1.20107e-09 -4.67163e-10 3.346319999999999e-10 -6.989709999999999e-10 7.730909999999999 5.47488 0.417314 -4.67175e-10 3.34624e-10 -6.98965e-10 2.90554 0.965183 0.102902 -4.67163e-10 3.34629e-10 -6.98965e-10 10.278600000000003 0.731801 0.0259123 -4.67173e-10 3.34623e-10 -6.98958e-10 2.22167 -0.733487 -0.20892000000000002 -2.97834e-13 6.03979e-13 -3.03755e-13 -109.407 48.906499999999994 47.76480000000001 28.1662 -39.4246 -82.8962 2.22488 -38.3704 6.38867 -5.775529999999999e-10 4.812220000000001e-11 -4.893769999999999e-10 -9.77582e-10 1.6282699999999997e-10 -8.707579999999999e-10 -5.77562e-10 4.81161e-11 -4.89366e-10 -7.730909999999999 5.47488 -0.417314 -5.775529999999999e-10 4.81189e-11 -4.89379e-10 -2.90554 0.965183 -0.102902 -5.77559e-10 4.81128e-11 -4.89368e-10 -10.278600000000003 0.731801 -0.0259123 -5.7755e-10 4.81214e-11 -4.89382e-10 -2.22167 -0.733487 0.20892000000000002 -2.03217e-16 0.0 -3.88251e-19 -63.163599999999995 -54.7188 -52.3635 -1.7912199999999996 68.136 2.2771799999999995 1.09445 2.06473 11.3778 2.03217e-16 0.0 3.88251e-19 13.5902 13.5933 -0.175931 -0.133433 31.2122 -2.63426 6.467980000000001 -14.2 33.2205
-2.98336 53.33829999999999 70.8669 10.860099999999997 31.444 7.5933 -18.9617 9.70757 5.312869999999999 5.399079999999999 -8.830770000000001 1.60688 -9.13101 17.7255 -12.7973 9.4344 -25.2211 -23.2132 -0.0 0.0 0.0 -0.0 0.0 0.0 -2.38698e-13 3.49009e-13 -3.5491200000000004e-13 32.013 14.3109 34.6226 -14.5214 -7.382950000000001 26.6092 -0.534156 20.3096 2.98155 1.91143e-09 4.31778e-09 1.24319e-09 3.3165e-09 7.629420000000002e-09 2.11286e-09 1.91144e-09 4.31781e-09 1.24317e-09 7.730909999999999 5.47488 0.417314 1.91143e-09 4.3177899999999994e-09 1.24318e-09 2.90554 0.965183 0.102902 1.91145e-09 4.31781e-09 1.24318e-09 10.278600000000003 0.731801 0.0259123 1.91143e-09 4.3177899999999994e-09 1.24318e-09 2.22167 -0.733487 -0.20892000000000002 -2.3875999999999993e-13 3.4901500000000005e-13 -3.55067e-13 -109.297 48.9804 47.65989999999999 28.169 -39.4074 -82.8639 2.27548 -38.7214 6.46984 1.10842e-09 1.71355e-10 7.98038e-10 1.8919799999999995e-09 2.11223e-10 1.4029700000000002e-09 1.10842e-09 1.71343e-10 7.980559999999999e-10 -7.730909999999999 5.47488 -0.417314 1.10842e-09 1.71353e-10 7.9804e-10 -2.90554 0.965183 -0.102902 1.10842e-09 1.71355e-10 7.9804e-10 -10.278600000000003 0.731801 -0.0259123 1.10842e-09 1.7135799999999997e-10 7.980280000000001e-10 -2.22167 -0.733487 0.20892000000000002 -2.03217e-16 0.0 -3.88251e-19 -63.6149 -54.955600000000004 -52.7102 -1.8242700000000003 68.3957 2.30893 1.1402400000000001 1.75705 11.4585 2.03217e-16 0.0 3.88251e-19 13.3775 14.063299999999998 0.165243 -0.14270700000000003 30.4516 -2.62089 6.28161 -14.0475 33.03880000000001
